<svg width="28" height="28" viewBox="0 0 28 28" fill="none" xmlns="http://www.w3.org/2000/svg">
<g clip-path="url(#clip0_2028_21)">
<rect width="28" height="28" fill="white"/>
<path d="M9.8 10.5C9.8 10.3143 9.87375 10.1363 10.005 10.005C10.1363 9.87374 10.3143 9.79999 10.5 9.79999H17.5C17.6857 9.79999 17.8637 9.87374 17.995 10.005C18.1263 10.1363 18.2 10.3143 18.2 10.5C18.2 10.6856 18.1263 10.8637 17.995 10.995C17.8637 11.1262 17.6857 11.2 17.5 11.2H10.5C10.3143 11.2 10.1363 11.1262 10.005 10.995C9.87375 10.8637 9.8 10.6856 9.8 10.5ZM10.5 14C10.3143 14 10.1363 14.0737 10.005 14.205C9.87375 14.3363 9.8 14.5143 9.8 14.7C9.8 14.8856 9.87375 15.0637 10.005 15.195C10.1363 15.3262 10.3143 15.4 10.5 15.4H17.5C17.6857 15.4 17.8637 15.3262 17.995 15.195C18.1263 15.0637 18.2 14.8856 18.2 14.7C18.2 14.5143 18.1263 14.3363 17.995 14.205C17.8637 14.0737 17.6857 14 17.5 14H10.5ZM9.8 18.9C9.8 18.7143 9.87375 18.5363 10.005 18.405C10.1363 18.2737 10.3143 18.2 10.5 18.2H13.3C13.4857 18.2 13.6637 18.2737 13.795 18.405C13.9262 18.5363 14 18.7143 14 18.9C14 19.0856 13.9262 19.2637 13.795 19.395C13.6637 19.5262 13.4857 19.6 13.3 19.6H10.5C10.3143 19.6 10.1363 19.5262 10.005 19.395C9.87375 19.2637 9.8 19.0856 9.8 18.9ZM8.4 3.49999C8.4 3.31434 8.47375 3.13629 8.60502 3.00501C8.7363 2.87374 8.91435 2.79999 9.1 2.79999C9.28565 2.79999 9.4637 2.87374 9.59497 3.00501C9.72625 3.13629 9.8 3.31434 9.8 3.49999V4.19999H13.3V3.49999C13.3 3.31434 13.3737 3.13629 13.505 3.00501C13.6363 2.87374 13.8143 2.79999 14 2.79999C14.1857 2.79999 14.3637 2.87374 14.495 3.00501C14.6262 3.13629 14.7 3.31434 14.7 3.49999V4.19999H18.2V3.49999C18.2 3.31434 18.2737 3.13629 18.405 3.00501C18.5363 2.87374 18.7143 2.79999 18.9 2.79999C19.0857 2.79999 19.2637 2.87374 19.395 3.00501C19.5263 3.13629 19.6 3.31434 19.6 3.49999V4.19999H20.3C20.857 4.19999 21.3911 4.42124 21.7849 4.81506C22.1788 5.20889 22.4 5.74303 22.4 6.29999V12.9248C21.9436 13.1208 21.5152 13.4036 21.1428 13.7774L21 13.9202V6.29999C21 6.11434 20.9263 5.93629 20.795 5.80501C20.6637 5.67374 20.4857 5.59999 20.3 5.59999H7.7C7.51435 5.59999 7.3363 5.67374 7.20502 5.80501C7.07375 5.93629 7 6.11434 7 6.29999V23.1C7 23.2856 7.07375 23.4637 7.20502 23.595C7.3363 23.7262 7.51435 23.8 7.7 23.8H12.908L12.6798 24.7142C12.6387 24.8785 12.6135 25.0404 12.6042 25.2H7.7C7.14304 25.2 6.6089 24.9787 6.21507 24.5849C5.82125 24.1911 5.6 23.6569 5.6 23.1V6.29999C5.6 5.74303 5.82125 5.20889 6.21507 4.81506C6.6089 4.42124 7.14304 4.19999 7.7 4.19999H8.4V3.49999ZM22.134 14.7672L15.372 21.5292C14.9781 21.9232 14.6984 22.4168 14.5628 22.9572L14.0378 25.0544C13.986 25.263 13.9891 25.4814 14.0467 25.6884C14.1043 25.8955 14.2144 26.0841 14.3665 26.236C14.5185 26.3879 14.7072 26.4979 14.9143 26.5553C15.1214 26.6127 15.3399 26.6156 15.5484 26.5636L17.6456 26.04C18.186 25.9044 18.6796 25.6247 19.0736 25.2308L25.8356 18.4688C26.3202 17.9764 26.5905 17.3125 26.5877 16.6217C26.5849 15.9309 26.3092 15.2692 25.8206 14.7808C25.332 14.2924 24.6702 14.0169 23.9794 14.0143C23.2886 14.0118 22.6248 14.2824 22.1326 14.7672" fill="black"/>
</g>
<defs>
<clipPath id="clip0_2028_21">
<rect width="28" height="28" fill="white"/>
</clipPath>
</defs>
</svg>
